{"title":"Wolf.Creek.2 2013.DVDRip.XviD.Mp3-Insane098","uid":10081444,"size":1262602617,"categoryP":"video","categoryS":"movies","magnet":"?xt=urn:btih:401d7e7183a55b63f65f14889a203cdeb3c6c0f4&amp;dn=Wolf.Creek.2+2013.DVDRip.XviD.Mp3-Insane098&amp;tr=udp%3A%2F%2Ftracker.openbittorrent.com%3A80&amp;tr=udp%3A%2F%2Fopen.demonii.com%3A1337&amp;tr=udp%3A%2F%2Ftracker.coppersurfer.tk%3A6969&amp;tr=udp%3A%2F%2Fexodus.desync.com%3A6969","seeders":2,"leechers":2,"uploader":"098765432","files":-1,"time":1399012558,"description":" &lt;a href=&quot;http://www.imdb.com/title/tt2004432/&quot; rel=&quot;nofollow&quot; target=&quot;_NEW&quot;&gt;http://www.imdb.com/title/tt2004432/&lt;/a&gt;\n\nPlot:\nThe outback once more becomes a place of horror as another unwitting tourist becomes the prey for crazed, serial-killing pig-hunter Mick Taylor.\n\nScreenshots: &lt;a href=&quot;\nhttp://i.imgur.com/ILOnlLQ.png&quot; rel=&quot;nofollow&quot; target=&quot;_NEW&quot;&gt;\nhttp://i.imgur.com/ILOnlLQ.png&lt;/a&gt; &lt;a href=&quot;\nhttp://i.imgur.com/zhSNw32.png&quot; rel=&quot;nofollow&quot; target=&quot;_NEW&quot;&gt;\nhttp://i.imgur.com/zhSNw32.png&lt;/a&gt; &lt;a href=&quot;\nhttp://i.imgur.com/LSpmmoZ.png&quot; rel=&quot;nofollow&quot; target=&quot;_NEW&quot;&gt;\nhttp://i.imgur.com/LSpmmoZ.png&lt;/a&gt;\n\nMedia Info:\nGeneral\nComplete name                            : Wolf.Creek.2 2013.DVDRip.XviD.Mp3-Insane098.avi\nFormat                                   : AVI\nFormat/Info                              : Audio Video Interleave\nFormat profile                           : OpenDML\nFile size                                : 1.16 GiB\nDuration                                 : 1h 46mn\nOverall bit rate                         : 1 568 Kbps\nWriting application                      : Lavf55.33.100\n\nVideo\nID                                       : 0\nFormat                                   : MPEG-4 Visual\nFormat profile                           : Advanced Simple@L5\nFormat settings, BVOP                    : 2\nFormat settings, QPel                    : No\nFormat settings, GMC                     : No warppoints\nFormat settings, Matrix                  : Default (H.263)\nMuxing mode                              : Packed bitstream\nCodec ID                                 : XVID\nCodec ID/Hint                            : XviD\nDuration                                 : 1h 46mn\nBit rate                                 : 1 360 Kbps\nWidth                                    : 720 pixels\nHeight                                   : 304 pixels\nDisplay aspect ratio                     : 2.35:1\nOriginal display aspect ratio            : 2.35:1\nFrame rate                               : 23.976 fps\nColor space                              : YUV\nChroma subsampling                       : 4:2:0\nBit depth                                : 8 bits\nScan type                                : Progressive\nCompression mode                         : Lossy\nBits/(Pixel*Frame)                       : 0.259\nStream size                              : 1.01 GiB (87%)\nWriting library                          : XviD 64\n\nAudio\nID                                       : 1\nFormat                                   : MPEG Audio\nFormat version                           : Version 1\nFormat profile                           : Layer 3\nCodec ID                                 : 55\nCodec ID/Hint                            : MP3\nDuration                                 : 1h 46mn\nBit rate mode                            : Constant\nBit rate                                 : 192 Kbps\nChannel count                            : 2 channels\nSampling rate                            : 48.0 KHz\nCompression mode                         : Lossy\nStream size                              : 146 MiB (12%)\nAlignment                                : Aligned on interleaves\nInterleave, duration                     : 24 ms (0.58 video frame)\nInterleave, preload duration             : 24 ms\nWriting library                          : LAME3.99.5\n\nNote: A video sample is included in the folder for those who want to check quality and compatibility before downloading the whole movie.","torrent":{"xt":"urn:btih:401d7e7183a55b63f65f14889a203cdeb3c6c0f4","amp;dn":"Wolf.Creek.2+2013.DVDRip.XviD.Mp3-Insane098","amp;tr":["udp%3A%2F%2Ftracker.openbittorrent.com%3A80","udp%3A%2F%2Fopen.demonii.com%3A1337","udp%3A%2F%2Ftracker.coppersurfer.tk%3A6969","udp%3A%2F%2Fexodus.desync.com%3A6969"],"infoHash":"401d7e7183a55b63f65f14889a203cdeb3c6c0f4","infoHashBuffer":{"type":"Buffer","data":[64,29,126,113,131,165,91,99,246,95,20,136,154,32,60,222,179,198,192,244]},"announce":[],"urlList":[]}}